# xmcd CD database file
# Copyright (C) 1997 Ti Kan
#
# Track frame offsets:
#  187
#  9562
#  22462
#  33527
#  45365
#  56812
#  75362
#  85462
#  96987
#  108387
#  126187
#  134812
#
# Disc length: 1969 seconds
#
# Revision: 1
# Processed by: cddbd v1.4b41PL1 Copyright (c) Steve Scherf et al.
# Submitted via: CDWizzard Release:4.22
#
DISCID=a507af0c
DTITLE=David Grisman, Vince Gill, Herb Pedersen, Jim Buchanan, Emory Gord
DTITLE=y, J - Here Today
DYEAR=1900
DGENRE=
TTITLE0=I'll Love Nobody But You
TTITLE1=Once More
TTITLE2=Foggy Mountain Chimes
TTITLE3=The Children Are Crying
TTITLE4=Hot Corn, Cold Corn
TTITLE5=Lonesome River
TTITLE6=My Walking Shoes
TTITLE7=Love and Wealth
TTITLE8=Billy in the Lowground
TTITLE9=Making Plans
TTITLE10=Sweet Little Miss Blue Eyes
TTITLE11=Going Up Home To Live In Green Pastures
EXTD=
EXTT0=
EXTT1=
EXTT2=
EXTT3=
EXTT4=
EXTT5=
EXTT6=
EXTT7=
EXTT8=
EXTT9=
EXTT10=
EXTT11=
PLAYORDER=
